<svg id="Layer_1" data-name="Layer 1" xmlns="http://www.w3.org/2000/svg" xmlns:xlink="http://www.w3.org/1999/xlink" viewBox="0 0 427 427"><defs><style>.cls-1{fill:none;}.cls-2{clip-path:url(#clip-path);}.cls-3{clip-path:url(#clip-path-2);}.cls-4{fill:#005185;}.cls-5{fill:#d9e021;}.cls-6{fill:#d32a77;}.cls-7{fill:#fdb913;}.cls-8{font-size:32.7px;}.cls-10,.cls-11,.cls-12,.cls-13,.cls-14,.cls-15,.cls-16,.cls-17,.cls-18,.cls-19,.cls-20,.cls-21,.cls-22,.cls-23,.cls-24,.cls-25,.cls-26,.cls-27,.cls-28,.cls-29,.cls-30,.cls-31,.cls-32,.cls-33,.cls-34,.cls-35,.cls-36,.cls-37,.cls-38,.cls-39,.cls-40,.cls-41,.cls-42,.cls-43,.cls-44,.cls-45,.cls-46,.cls-47,.cls-48,.cls-8,.cls-9{fill:#fff;font-family:GillSans-UltraBold, Gill Sans;font-weight:700;}.cls-9{font-size:32.7px;}.cls-10{font-size:32.7px;}.cls-11{font-size:32.7px;}.cls-12{font-size:32.7px;}.cls-13{font-size:32.7px;}.cls-14{font-size:32.7px;}.cls-15{font-size:32.7px;}.cls-16{font-size:32.7px;}.cls-17{font-size:32.7px;}.cls-18{font-size:6.7px;}.cls-19{font-size:6.7px;}.cls-20{font-size:6.7px;}.cls-21{font-size:6.7px;}.cls-22{font-size:6.7px;}.cls-23{font-size:6.7px;}.cls-24{font-size:6.7px;}.cls-25{font-size:6.7px;}.cls-26{font-size:6.7px;}.cls-27{font-size:6.7px;}.cls-28{font-size:6.7px;}.cls-29{font-size:6.7px;}.cls-30{font-size:6.7px;}.cls-31{font-size:6.7px;}.cls-32{font-size:6.7px;}.cls-33{font-size:6.7px;}.cls-34{font-size:6.7px;}.cls-35{font-size:6.7px;}.cls-36{font-size:6.7px;}.cls-37{font-size:6.7px;}.cls-38{font-size:6.7px;}.cls-39{font-size:6.7px;}.cls-40{font-size:6.7px;}.cls-41{font-size:6.7px;}.cls-42{font-size:6.7px;}.cls-43{font-size:13.42px;}.cls-44{font-size:13.42px;}.cls-45{font-size:13.42px;}.cls-46{font-size:13.42px;}.cls-47{font-size:13.42px;}.cls-48{font-size:13.42px;}</style><clipPath id="clip-path" transform="translate(-3.16 -3.38)"><rect class="cls-1" x="3.16" y="-31.48" width="427" height="461.86"/></clipPath><clipPath id="clip-path-2" transform="translate(-3.16 -3.38)"><rect class="cls-1" x="3.16" y="3.38" width="427" height="427"/></clipPath></defs><g id="Vector_Smart_Object" data-name="Vector Smart Object"><g class="cls-2"><g class="cls-3"><path class="cls-4" d="M216.66,430.38c117.91,0,213.5-95.59,213.5-213.5S334.57,3.38,216.66,3.38,3.16,99,3.16,216.88s95.58,213.5,213.5,213.5" transform="translate(-3.16 -3.38)"/><path class="cls-5" d="M216.53,369.78A152.08,152.08,0,1,0,64.45,217.7,152.08,152.08,0,0,0,216.53,369.78" transform="translate(-3.16 -3.38)"/><path class="cls-6" d="M123,216.68a93.85,93.85,0,1,0,93.85-93.85A93.85,93.85,0,0,0,123,216.68" transform="translate(-3.16 -3.38)"/><path class="cls-7" d="M169.55,216.68A47.68,47.68,0,1,0,217.23,169a47.68,47.68,0,0,0-47.68,47.68" transform="translate(-3.16 -3.38)"/></g><text class="cls-8" transform="matrix(0.76, -0.64, 0.64, 0.76, 102.59, 97.24)">t</text><text class="cls-9" transform="matrix(0.84, -0.54, 0.54, 0.84, 116.01, 85.67)">o</text><text class="cls-10" transform="translate(135.03 73.42) rotate(-25.31)">k</text><text class="cls-11" transform="translate(157.52 62.95) rotate(-16.02)">y</text><text class="cls-12" transform="translate(179.99 56.46) rotate(-7.78)">o</text><text class="cls-12" transform="translate(202.76 53.65) rotate(-1.82)"> </text><text class="cls-13" transform="matrix(1, 0.07, -0.07, 1, 213.09, 53.03)">r</text><text class="cls-14" transform="matrix(0.98, 0.2, -0.2, 0.98, 234.09, 54.35)">e</text><text class="cls-15" transform="translate(255.74 58.75) rotate(19.06)">c</text><text class="cls-10" transform="translate(275.37 65.4) rotate(26.75)">o</text><text class="cls-16" transform="matrix(0.82, 0.57, -0.57, 0.82, 295.68, 75.65)">r</text><text class="cls-17" transform="translate(313.14 87.38) rotate(42.8)">d</text><text class="cls-17" transform="translate(331.68 104.78) rotate(50.82)">s</text><text class="cls-18" transform="translate(249.34 371.12) rotate(167.89)">c</text><text class="cls-19" transform="translate(245.11 372.04) rotate(169.52)">o</text><text class="cls-20" transform="translate(240.41 372.91) rotate(171.33)">p</text><text class="cls-21" transform="matrix(-0.99, 0.12, -0.12, -0.99, 235.12, 373.71)">y</text><text class="cls-22" transform="translate(230.22 374.29) rotate(174.86)">r</text><text class="cls-23" transform="matrix(-1, 0.07, -0.07, -1, 225.82, 374.68)">i</text><text class="cls-24" transform="translate(223.07 374.88) rotate(177.53)">g</text><text class="cls-25" transform="translate(218.02 375.1) rotate(179.38)">h</text><text class="cls-26" transform="matrix(-1, -0.02, 0.02, -1, 212.66, 375.15)">t</text><text class="cls-27" transform="translate(208.92 375.08) rotate(-177.95)"> </text><text class="cls-28" transform="matrix(-1, -0.06, 0.06, -1, 206.71, 375.02)">2</text><text class="cls-29" transform="translate(201.06 374.66) rotate(-174.91)">0</text><text class="cls-30" transform="matrix(-0.99, -0.13, 0.13, -0.99, 195.41, 374.15)">1</text><text class="cls-31" transform="translate(189.78 373.41) rotate(-170.59)">9</text><text class="cls-32" transform="translate(184.17 372.47) rotate(-169.2)"> </text><text class="cls-33" transform="matrix(-0.98, -0.21, 0.21, -0.98, 181.98, 372.05)">t</text><text class="cls-34" transform="matrix(-0.97, -0.23, 0.23, -0.97, 178.33, 371.29)">o</text><text class="cls-35" transform="translate(173.67 370.19) rotate(-164.84)">k</text><text class="cls-36" transform="translate(168.68 368.84) rotate(-163.05)">y</text><text class="cls-37" transform="matrix(-0.95, -0.32, 0.32, -0.95, 163.97, 367.4)">o</text><text class="cls-38" transform="matrix(-0.94, -0.34, 0.34, -0.94, 159.42, 365.85)"> </text><text class="cls-38" transform="translate(157.36 365.11) rotate(-158.86)">r</text><text class="cls-19" transform="translate(153.21 363.51) rotate(-157.23)">e</text><text class="cls-39" transform="translate(148.95 361.72) rotate(-155.62)">c</text><text class="cls-40" transform="translate(144.96 359.91) rotate(-153.97)">o</text><text class="cls-41" transform="translate(140.67 357.82) rotate(-152.32)">r</text><text class="cls-42" transform="translate(136.75 355.77) rotate(-150.57)">d</text><text class="cls-32" transform="translate(132.11 353.14) rotate(-148.89)">s</text><text class="cls-43" transform="translate(200.38 149.4) rotate(-7.72)">s</text><text class="cls-44" transform="translate(208.34 148.38) rotate(-1.88)">i</text><text class="cls-45" transform="translate(213.65 148.03) rotate(4.94)">d</text><text class="cls-46" transform="translate(224.04 148.96) rotate(13.26)">e</text><text class="cls-47" transform="translate(232.88 151.16) rotate(19.05)"> </text><text class="cls-48" transform="matrix(0.91, 0.42, -0.42, 0.91, 236.94, 152.41)">a</text></g></g></svg>