<svg id="Layer_2" data-name="Layer 2" xmlns="http://www.w3.org/2000/svg" viewBox="0 0 166.92 138.33"><defs><style>.cls-1{fill:#f1f2f2;}.cls-2{fill:#231f20;}.cls-3{opacity:0.43;}.cls-4{fill:#be1e2d;}.cls-5{fill:#c49a6c;}</style></defs><path class="cls-1" d="M90.31,105.57a28.5,28.5,0,0,1-2.76,2,28.8,28.8,0,0,1-5.91,2.93h.07a29.38,29.38,0,0,0,8.65-4.93Zm-34.83,2a26.9,26.9,0,0,1-2.76-2h0a26.13,26.13,0,0,0,2.73,2,29.25,29.25,0,0,0,5.93,2.94h.07A28.17,28.17,0,0,1,55.48,107.56Z"/><path class="cls-2" d="M92.52,103.57c-.7.7-1.44,1.37-2.21,2a28.5,28.5,0,0,1-2.76,2h.07a29.5,29.5,0,0,0,2.74-2,27.57,27.57,0,0,0,2.2-2Zm-39.8,2c-.77-.63-1.51-1.3-2.21-2h0a30.83,30.83,0,0,0,4.94,4h.08A26.9,26.9,0,0,1,52.72,105.56Z"/><g class="cls-3"><path class="cls-4" d="M25.21,59.85a.2.2,0,0,0,0,.11h0A.31.31,0,0,1,25.21,59.85Z"/><path class="cls-2" d="M25.21,59.85a.2.2,0,0,0,0,.11h0A.31.31,0,0,1,25.21,59.85Z"/></g><g class="cls-3"><path class="cls-2" d="M25.1,55.9v0h0Zm.11,4a.2.2,0,0,0,0,.11h0A.31.31,0,0,1,25.21,59.85Z"/></g><polygon class="cls-4" points="16.02 71.86 13.69 72.04 13.18 72.08 13.18 72.07 13.48 71.68 13.19 72.07 13.68 72.03 16.02 71.86"/><path class="cls-2" d="M13.18,72.07h0l.29-.39Z"/><g class="cls-3"><path class="cls-4" d="M21.83,70.84a2.69,2.69,0,0,1-.49.34h0A2.7,2.7,0,0,0,21.83,70.84Z"/><path class="cls-2" d="M13.68,72a0,0,0,0,0,0,0L16,71.86Zm7.65-.86h0a2.69,2.69,0,0,0,.49-.34A2.7,2.7,0,0,1,21.33,71.17Z"/></g><path class="cls-4" d="M45.78,92.86l-.06,0h0S45.77,92.84,45.78,92.86Z"/><path class="cls-4" d="M97.31,92.81l0,0s0,0,0,0Z"/><path class="cls-4" d="M97.28,92.81s0,0,0,0l0,0Zm-65.36-5L31.05,80l.86,7.82a9.33,9.33,0,0,0,.34,1.67A9.31,9.31,0,0,1,31.92,87.86Zm1.82-11.92c.19.4.4.79.62,1.18h0C34.16,76.73,33.94,76.34,33.74,75.94Zm12,16.87h0l.06,0S45.76,92.83,45.76,92.81Z"/><path class="cls-4" d="M45.76,92.81h0l.06,0S45.76,92.83,45.76,92.81Zm51.52,0s0,0,0,0l0,0Z"/><path class="cls-4" d="M45.78,92.86l-.06,0h0S45.77,92.84,45.78,92.86Z"/><path class="cls-4" d="M97.31,92.81l0,0s0,0,0,0Z"/><path class="cls-4" d="M32.84,74.08c.15.35.31.7.48,1h0C33.17,74.78,33,74.43,32.84,74.08Zm.9,1.86c.19.4.4.79.62,1.18h0C34.16,76.73,33.94,76.34,33.74,75.94ZM35.9,33.6c-.57.88-1.11,1.78-1.6,2.7.5-.92,1-1.83,1.61-2.7Zm77.93,19.88c0,.45,0,.9.07,1.36h0C113.89,54.39,113.86,53.93,113.83,53.48Z"/><path class="cls-4" d="M97.28,92.81s0,0,0,0l0,0ZM25.1,55.9v0h0Zm.11,4a.2.2,0,0,0,0,.11h0A.31.31,0,0,1,25.21,59.85Zm7.63,14.23c.15.35.31.7.48,1h0C33.17,74.78,33,74.43,32.84,74.08Zm.9,1.86c.19.4.4.79.62,1.18h0C34.16,76.73,33.94,76.34,33.74,75.94Zm80.09-22.46c0,.45,0,.9.07,1.36h0C113.89,54.39,113.86,53.93,113.83,53.48ZM45.76,92.81h0l.06,0S45.76,92.83,45.76,92.81Z"/><path class="cls-5" d="M87.55,107.57a28.8,28.8,0,0,1-5.91,2.93h.07a29.31,29.31,0,0,0,5.91-2.93Zm0,0a28.8,28.8,0,0,1-5.91,2.93h.07a29.31,29.31,0,0,0,5.91-2.93Zm-32.07,0H55.4a29.25,29.25,0,0,0,5.93,2.94h.07A28.17,28.17,0,0,1,55.48,107.56Zm32.07,0a28.8,28.8,0,0,1-5.91,2.93h.07a29.31,29.31,0,0,0,5.91-2.93Zm-32.07,0H55.4a29.25,29.25,0,0,0,5.93,2.94h.07A28.17,28.17,0,0,1,55.48,107.56Zm32.07,0a28.8,28.8,0,0,1-5.91,2.93h.07a29.31,29.31,0,0,0,5.91-2.93Zm-32.07,0H55.4a29.25,29.25,0,0,0,5.93,2.94h.07A28.17,28.17,0,0,1,55.48,107.56Zm32.07,0a28.8,28.8,0,0,1-5.91,2.93h.07a29.31,29.31,0,0,0,5.91-2.93Zm-32.07,0H55.4a29.25,29.25,0,0,0,5.93,2.94h.07A28.17,28.17,0,0,1,55.48,107.56Zm32.07,0a28.8,28.8,0,0,1-5.91,2.93h.07a29.31,29.31,0,0,0,5.91-2.93Zm-32.07,0H55.4a29.25,29.25,0,0,0,5.93,2.94h.07A28.17,28.17,0,0,1,55.48,107.56Zm32.07,0a28.8,28.8,0,0,1-5.91,2.93h.07a29.31,29.31,0,0,0,5.91-2.93Zm-32.07,0H55.4a29.25,29.25,0,0,0,5.93,2.94h.07A28.17,28.17,0,0,1,55.48,107.56Zm32.07,0a28.8,28.8,0,0,1-5.91,2.93h.07a29.31,29.31,0,0,0,5.91-2.93Zm-32.07,0H55.4a29.25,29.25,0,0,0,5.93,2.94h.07A28.17,28.17,0,0,1,55.48,107.56Zm40.13-7.63a28.18,28.18,0,0,1-3.09,3.64c-.7.7-1.44,1.37-2.21,2a28.5,28.5,0,0,1-2.76,2,28.8,28.8,0,0,1-5.91,2.93h.07a29.38,29.38,0,0,0,8.65-4.93,27.57,27.57,0,0,0,2.2-2,29.92,29.92,0,0,0,3.08-3.64Zm-40.13,7.63a26.9,26.9,0,0,1-2.76-2c-.77-.63-1.51-1.3-2.21-2a29.77,29.77,0,0,1-3.09-3.63h0a28.88,28.88,0,0,0,3.07,3.63,30.83,30.83,0,0,0,4.94,4,29.25,29.25,0,0,0,5.93,2.94h.07A28.17,28.17,0,0,1,55.48,107.56Zm32.07,0a28.8,28.8,0,0,1-5.91,2.93h.07a29.31,29.31,0,0,0,5.91-2.93Zm-32.07,0H55.4a29.25,29.25,0,0,0,5.93,2.94h.07A28.17,28.17,0,0,1,55.48,107.56Zm32.07,0a28.8,28.8,0,0,1-5.91,2.93h.07a29.31,29.31,0,0,0,5.91-2.93Zm-32.07,0H55.4a29.25,29.25,0,0,0,5.93,2.94h.07A28.17,28.17,0,0,1,55.48,107.56Zm32.07,0a28.8,28.8,0,0,1-5.91,2.93h.07a29.31,29.31,0,0,0,5.91-2.93Zm-32.07,0H55.4a29.25,29.25,0,0,0,5.93,2.94h.07A28.17,28.17,0,0,1,55.48,107.56Zm32.07,0a28.8,28.8,0,0,1-5.91,2.93h.07a29.31,29.31,0,0,0,5.91-2.93Zm-32.07,0H55.4a29.25,29.25,0,0,0,5.93,2.94h.07A28.17,28.17,0,0,1,55.48,107.56Zm32.07,0a28.8,28.8,0,0,1-5.91,2.93h.07a29.31,29.31,0,0,0,5.91-2.93Zm-32.07,0H55.4a29.25,29.25,0,0,0,5.93,2.94h.07A28.17,28.17,0,0,1,55.48,107.56Zm32.07,0a28.8,28.8,0,0,1-5.91,2.93h.07a29.31,29.31,0,0,0,5.91-2.93Zm-32.07,0H55.4a29.25,29.25,0,0,0,5.93,2.94h.07A28.17,28.17,0,0,1,55.48,107.56Zm32.07,0a28.8,28.8,0,0,1-5.91,2.93h.07a29.31,29.31,0,0,0,5.91-2.93Zm-32.07,0H55.4a29.25,29.25,0,0,0,5.93,2.94h.07A28.17,28.17,0,0,1,55.48,107.56Zm32.07,0a28.8,28.8,0,0,1-5.91,2.93h.07a29.31,29.31,0,0,0,5.91-2.93Z"/><path class="cls-1" d="M32.84,74.08c.15.35.31.7.48,1h0C33.17,74.78,33,74.43,32.84,74.08Zm.9,1.86c.19.4.4.79.62,1.18h0C34.16,76.73,33.94,76.34,33.74,75.94ZM97.28,92.81s0,0,0,0l0,0ZM35.9,33.6c-.57.88-1.11,1.78-1.6,2.7.5-.92,1-1.83,1.61-2.7Zm77.93,19.88c0,.45,0,.9.07,1.36h0C113.89,54.39,113.86,53.93,113.83,53.48ZM45.76,92.81h0l.06,0S45.76,92.83,45.76,92.81Z"/><path class="cls-4" d="M136.09,82.74A22.5,22.5,0,0,0,114,101.26a8.17,8.17,0,0,0-7.65-5.33h-1.85a8.51,8.51,0,0,0,.83-.34l.12,0,.09,0c.19-.09.37-.19.55-.29h0c.22-.12.44-.26.65-.4l.1-.07c.21-.14.41-.3.6-.45s.42-.36.61-.55.38-.39.56-.59.35-.42.52-.64a9.1,9.1,0,0,0,.85-1.41c.12-.24.23-.5.34-.76l0-.07c.08-.23.16-.45.23-.69l0-.1c0-.2.11-.4.15-.61s.12-.65.16-1l.56-5v-.09l.34-3a44.71,44.71,0,0,0,3.33-7.16c.14-.36.26-.71.38-1.07s.24-.73.35-1.09.18-.61.28-.91c.33-1.16.62-2.34.86-3.53.08-.38.16-.76.22-1.14s.13-.76.19-1.15c.2-1.28.34-2.58.43-3.88v0a.09.09,0,0,0,0-.05v0c0-.13,0-.25,0-.38s0-.34,0-.51v-.06c0-.3,0-.59,0-.89s0-.8,0-1.2A46.38,46.38,0,0,0,40.87,21.81l0,0a2.34,2.34,0,0,0-.27.2,46.45,46.45,0,0,0-7,7.79,2.4,2.4,0,0,0-.16.27h0A46.16,46.16,0,0,0,25.1,55.9l0,0h0v0a7.12,7.12,0,0,0-6.62-4.48,5.53,5.53,0,0,0-.71,0h-.05a4.93,4.93,0,0,0-.67.11l-.29.07h-.07L6.34,53.18a1.89,1.89,0,0,0-1,.47l-.2.2a1.9,1.9,0,0,0-.41.75,2,2,0,0,0,.62,2.07L14,64.13l.08.05h0l-6.7,9A2,2,0,0,0,9,76.39h.15l11.39-.85.25,0,.09,0h.07a.1.1,0,0,0,.09,0,.76.76,0,0,0,.21,0h.05a4.92,4.92,0,0,0,.55-.14.47.47,0,0,0,.16,0,5.37,5.37,0,0,0,.56-.21.21.21,0,0,0,.11,0,6.28,6.28,0,0,0,1.08-.59c.08,0,.14-.1.22-.14a0,0,0,0,1,0,0l0,0,.43-.34c.15-.13.3-.26.44-.4a7.5,7.5,0,0,0,.88-1.06c.13-.19.25-.39.36-.59l.3-.61s0,0,0,0c.08-.19.15-.38.22-.58l0-.1a2.73,2.73,0,0,0,.1-.41h0a1,1,0,0,0,.3,0c.11.39.23.77.36,1.16s.24.71.37,1.06.33.92.52,1.38.38,1,.59,1.44A45.39,45.39,0,0,0,31,79.22v0l.08.77.87,7.82a9.31,9.31,0,0,0,.33,1.67,9.66,9.66,0,0,0,6.13,6.4H37a8.15,8.15,0,0,0-8.14,8.13v2.3A8.15,8.15,0,0,0,37,114.5h5.68l2.78.22a29.73,29.73,0,0,0,52.19,0l2.73-.22h6a8.17,8.17,0,0,0,7.65-5.33,22.48,22.48,0,1,0,22.13-26.43ZM111.71,70.23c-.11.33-.22.66-.35,1-.36,1-.75,1.93-1.17,2.87-.16.35-.33.7-.49,1-.33.68-.68,1.35-1,2-.09.18-.19.36-.29.54l-.4-.54-.9-1.21-.31-.41c0-.12.08-.25.11-.38a15.32,15.32,0,0,0,.56-4.14A15.69,15.69,0,0,0,91.74,55.3a15.1,15.1,0,0,0-2.54.21A188.2,188.2,0,0,0,74.5,42.4a58.83,58.83,0,0,1,39.28,17.92c-.1,1.15-.25,2.3-.44,3.43-.15.9-.33,1.78-.54,2.66A38.71,38.71,0,0,1,111.71,70.23Zm-65-48,.81-.57c.27-.2.55-.38.83-.56l.84-.54.85-.51.87-.5c.87-.49,1.76-.95,2.67-1.37l.92-.42a41.15,41.15,0,0,1,6.44-2.23l1-.25.72-.16a41.33,41.33,0,0,1,4.63-.72c.34,0,.69-.07,1-.09l.42,0,1.57-.08h1.19l1.23,0c.52,0,1,0,1.53.07l.42,0,1,.09a42.41,42.41,0,0,1,4.69.73l.66.15,1,.25a40.83,40.83,0,0,1,4,1.24l1,.37c1,.38,1.92.8,2.86,1.26l.89.44a41.69,41.69,0,0,1,6.07,3.79c.27.2.54.4.8.61a42.7,42.7,0,0,1,4.81,4.41l.49.54c.67.73,1.31,1.49,1.92,2.27.37.47.73.95,1.07,1.43s.84,1.19,1.24,1.82c.18.27.36.56.53.84.55.9,1.07,1.82,1.55,2.77.16.3.31.61.46.92.45.92.86,1.86,1.24,2.83.13.32.26.64.37,1q.56,1.5,1,3.06c.09.31.18.62.25.93s.18.67.25,1,.17.73.24,1.1.14.65.19,1,.12.7.17,1,.11.7.15,1.05.09.71.12,1.07.07.63.09.95a1.5,1.5,0,0,1,0,.22c0,.45.06.91.08,1.37h0A62.93,62.93,0,0,0,71.52,38.32c-.73,0-1.47,0-2.2,0A188.73,188.73,0,0,0,45.5,23.15Q46.09,22.69,46.7,22.25ZM13.35,58.31l-1.78-1.53-.32-.28.41-.06L14,56.1l1.18-.18,2.17-.32h.07l.16,0,.08,0a2.45,2.45,0,0,1,.37-.08,2.59,2.59,0,0,1,.48,0,3.12,3.12,0,0,1,.93.14,3.17,3.17,0,0,1,2,1.88,7,7,0,0,0-2.53,3.9h0a1.94,1.94,0,0,0-.07.33l-.33,0-.32,0a1.35,1.35,0,0,1-.28,0l-.17,0h0l-.13,0a3,3,0,0,1-.56-.24h0a3,3,0,0,1-.43-.29.91.91,0,0,0-.16-.11l-.48-.41-1.67-1.44Zm9.35,11.4a2.12,2.12,0,0,1-.11.21h0l-.16.24a1.44,1.44,0,0,1-.18.25,1.37,1.37,0,0,1-.2.22,1.42,1.42,0,0,1-.22.2,2.69,2.69,0,0,1-.49.34,3,3,0,0,1-1.19.37H20l-.74,0-2.19.17L16,71.86,13.69,72l-.51,0h0l.3-.39h0l1.4-1.88.65-.88,1.31-1.76.4-.53a1.34,1.34,0,0,0,.11-.14.34.34,0,0,1,.06-.06,1.42,1.42,0,0,1,.2-.22,2.71,2.71,0,0,1,.67-.51l.33-.16a2.51,2.51,0,0,1,.46-.16,1.15,1.15,0,0,0,.11.29,7.1,7.1,0,0,0,3.6,3.83h0Zm5.24-4.38h0a3.16,3.16,0,0,1-1.37.74,2.63,2.63,0,0,1-.49.07,1.23,1.23,0,0,1-.27,0A3.17,3.17,0,0,1,23,64.36a.64.64,0,0,1-.08-.19A2.85,2.85,0,0,1,22.67,63,3.12,3.12,0,0,1,22.86,62h0a3.1,3.1,0,0,1,2.34-2,.2.2,0,0,1,0-.11.31.31,0,0,0,0,.1l.26,0,.33,0A3.16,3.16,0,0,1,29,63,3.08,3.08,0,0,1,27.94,65.33ZM29.19,53.8c0-.35,0-.7.08-1s.07-.7.11-1,.08-.69.13-1,.1-.69.16-1,.12-.68.18-1,.13-.67.21-1,.15-.67.23-1,.16-.67.25-1c.27-1,.56-2,.9-2.92.11-.34.24-.67.36-1s.22-.59.35-.89.25-.62.39-.93c.23-.56.48-1.1.74-1.64a.76.76,0,0,0,.09-.18c.15-.3.3-.6.46-.9s.3-.59.47-.88c.49-.92,1-1.82,1.6-2.7h0q7.32,3.93,14.27,8.5a62.7,62.7,0,0,0-21,12.75Q29.15,54.33,29.19,53.8Zm6.7,33.62-.13-1.21h0l-.42-3.76L35,79.12l-.08-.7a2.11,2.11,0,0,0-.25-.77c-.1-.18-.2-.35-.29-.53-.22-.39-.43-.78-.62-1.18a9,9,0,0,1-.41-.82h0c-.17-.34-.33-.69-.48-1s-.29-.63-.41-1-.27-.63-.39-.95-.26-.64-.37-1c-.31-.83-.59-1.67-.83-2.51l-.14-.47h0a7.1,7.1,0,0,0,.51-9.84A58.63,58.63,0,0,1,54.34,44.92q5.76,4,11.22,8.49c.68.55,1.35,1.11,2,1.68.51.42,1,.84,1.5,1.27.2.17.4.34.59.52q4.08,3.52,8,7.29h0A15.64,15.64,0,0,0,76.07,71a15.32,15.32,0,0,0,.56,4.14,14.77,14.77,0,0,0,.7,2,15.67,15.67,0,0,0,19.33,8.74l.31.42c.17.21.33.43.49.65.39.52.77,1,1.15,1.57L99,89l1,1.48.12.17,1.13,1.63.15.21s0,0,0,0l-.46,0-1.47.11-2.17.18,0,0s0,0,0,0l-1.09.09A2,2,0,0,0,94.56,94c-.15.3-.31.6-.47.9h0a.7.7,0,0,1-.09.17c-.16.29-.32.57-.5.85s-.53.85-.81,1.26c-.17.25-.34.5-.53.74s-.23.32-.35.47q-.61.8-1.29,1.53a25.45,25.45,0,0,1-4.12,3.64,23.05,23.05,0,0,1-3.34,2,19.21,19.21,0,0,1-2,.89,19.18,19.18,0,0,1-2.77.93q-.33.1-.66.18l-.89.19c-.8.16-1.62.29-2.45.38l-.19,0-1,.07a5.83,5.83,0,0,1-.59,0l-1,0-1,0a5.83,5.83,0,0,1-.59,0l-1-.07-.19,0c-.83-.09-1.65-.22-2.45-.38l-.9-.2q-.33-.07-.66-.18c-.47-.12-.94-.26-1.4-.42a11.15,11.15,0,0,1-1.26-.46.51.51,0,0,1-.22-.09,17.39,17.39,0,0,1-1.93-.85,23.5,23.5,0,0,1-3.33-2,25.76,25.76,0,0,1-4.12-3.63c-.44-.49-.87-1-1.28-1.53l-.36-.47c-.18-.24-.35-.49-.53-.74s-.26-.39-.38-.59a.15.15,0,0,1,0-.07c-.13-.2-.26-.4-.38-.6s-.34-.56-.49-.85l-.1-.17c-.17-.3-.33-.6-.48-.91a2,2,0,0,0-1.63-1.1l-1.08-.09s0,0,0,0l-.06,0-2.16-.17-1.46-.12-1-.08A5.67,5.67,0,0,1,35.89,87.42ZM37,110.5a3.91,3.91,0,0,1-.49,0,4.15,4.15,0,0,1-3.65-4.11v-2.3a1.09,1.09,0,0,1,0-.18A4.13,4.13,0,0,1,37,99.93H47.42a29.77,29.77,0,0,0,3.09,3.63c.7.7,1.44,1.37,2.21,2a26.9,26.9,0,0,0,2.76,2,28.17,28.17,0,0,0,5.92,2.94Zm34.56,15.7A25.56,25.56,0,0,1,50,114.5H93.09A25.56,25.56,0,0,1,71.52,126.2Zm38.93-19.84a4.6,4.6,0,0,1-.08.84,4.16,4.16,0,0,1-4,3.3H81.64a28.8,28.8,0,0,0,5.91-2.93,28.5,28.5,0,0,0,2.76-2c.77-.63,1.51-1.3,2.21-2a28.18,28.18,0,0,0,3.09-3.64h10.7a4.14,4.14,0,0,1,4,3.27,4,4,0,0,1,.09.86Zm25.64,17.35a18.52,18.52,0,0,1-18.38-16.51h13.81a5,5,0,1,0,0-4H117.72a18.48,18.48,0,1,1,18.37,20.51Z"/><path class="cls-2" d="M25.1,55.9v0h0Zm3.81,19.19A43.77,43.77,0,0,0,31,79.27v0A45.39,45.39,0,0,1,28.91,75.09Zm66.7,24.84a28.18,28.18,0,0,1-3.09,3.64c-.7.7-1.44,1.37-2.21,2a28.5,28.5,0,0,1-2.76,2,28.8,28.8,0,0,1-5.91,2.93h.07a29.38,29.38,0,0,0,8.65-4.93,27.57,27.57,0,0,0,2.2-2,29.92,29.92,0,0,0,3.08-3.64Zm1.67-7.12s0,0,0,0l0,0Zm16.55-39.33c0,.45,0,.9.07,1.36h0C113.89,54.39,113.86,53.93,113.83,53.48ZM55.48,107.56a26.9,26.9,0,0,1-2.76-2c-.77-.63-1.51-1.3-2.21-2a29.77,29.77,0,0,1-3.09-3.63h0a28.88,28.88,0,0,0,3.07,3.63,30.83,30.83,0,0,0,4.94,4,29.25,29.25,0,0,0,5.93,2.94h.07A28.17,28.17,0,0,1,55.48,107.56ZM45.76,92.81h0l.06,0S45.76,92.83,45.76,92.81Z"/><path class="cls-4" d="M68.69,77.12l-.1.08a2,2,0,0,1-2.13.1l-.33-.18a24.51,24.51,0,0,0-4.89-2A25.66,25.66,0,0,0,54,74.06a25.31,25.31,0,0,0-7,1,1.25,1.25,0,0,0-.26.07q-1,.3-2,.69c-.77.3-1.53.64-2.27,1l-.56.3-.35.19a2,2,0,0,1-1,.25,2,2,0,0,1-1.15-.36l-.1-.08a2,2,0,0,1-.73-1.88s0-.08,0-.12A15.58,15.58,0,0,1,49.32,62.79a15.34,15.34,0,0,1,3.41-.64c.4,0,.81,0,1.22,0a15.78,15.78,0,0,1,1.83.11A15.56,15.56,0,0,1,69.39,75.12s0,.08,0,.12A2,2,0,0,1,68.69,77.12Z"/><path class="cls-2" d="M25.1,55.9v0h0Zm.11,4a.2.2,0,0,0,0,.11h0A.31.31,0,0,1,25.21,59.85Z"/><path class="cls-4" d="M13.68,72l-.49,0,.29-.39-.3.39h0l.51,0L16,71.86Zm7.65-.86h0a2.69,2.69,0,0,0,.49-.34A2.7,2.7,0,0,1,21.33,71.17Z"/><path class="cls-2" d="M13.68,72l-.49,0h0l.51,0L16,71.86Zm11.19,1.44a5.51,5.51,0,0,0,.88-1.06A7.5,7.5,0,0,1,24.87,73.47Z"/><path class="cls-4" d="M80.26,96.2a2,2,0,0,1-1,1.7l-.06,0a2,2,0,0,1-.95.24,1.93,1.93,0,0,1-.94-.24,2,2,0,0,1-.72-.64,4.9,4.9,0,0,0-.61-.74,4,4,0,0,0-.7-.62,5.64,5.64,0,0,0-2.72-1.12h0c-.23,0-.47,0-.71,0a5.29,5.29,0,0,0-.8.06,5.57,5.57,0,0,0-2.64,1.1,3.94,3.94,0,0,0-.72.64,4.62,4.62,0,0,0-.59.72,2,2,0,0,1-2.6.64l-.06,0a2,2,0,0,1-1-1.67,1.5,1.5,0,0,1,0-.3,2.13,2.13,0,0,1,.2-.65l.5-1,5.91-11.87a2,2,0,0,1,3.58,0l5.9,11.84.51,1a2.22,2.22,0,0,1,.2.65A2.44,2.44,0,0,1,80.26,96.2Z"/><path class="cls-4" d="M35.9,33.6c-.57.88-1.11,1.78-1.6,2.7.5-.92,1-1.83,1.61-2.7Zm77.93,19.88c0,.45,0,.9.07,1.36h0C113.89,54.39,113.86,53.93,113.83,53.48Z"/><path class="cls-2" d="M25.1,55.9v0h0ZM35.9,33.6c-.57.88-1.11,1.78-1.6,2.7.5-.92,1-1.83,1.61-2.7Z"/><path class="cls-2" d="M109.1,92.5a8.38,8.38,0,0,0,.85-1.41A9.1,9.1,0,0,1,109.1,92.5Z"/><path class="cls-4" d="M25.21,59.85a.2.2,0,0,0,0,.11h0A.31.31,0,0,1,25.21,59.85Z"/><path class="cls-2" d="M25.21,59.85a.2.2,0,0,0,0,.11h0A.31.31,0,0,1,25.21,59.85Z"/></svg>