<svg id="Layer_2" data-name="Layer 2" xmlns="http://www.w3.org/2000/svg" viewBox="0 0 141.24 102.46"><defs><style>.cls-1{fill:#be1e2d;}</style></defs><path class="cls-1" d="M17.37,22.72l-2,22a1.94,1.94,0,0,0,.09.76l2.06-23.32A1.85,1.85,0,0,0,17.37,22.72Z"/><path class="cls-1" d="M17.37,22.72l-2,22a1.94,1.94,0,0,0,.09.76l2.06-23.32A1.85,1.85,0,0,0,17.37,22.72Z"/><path class="cls-1" d="M121.49,34.94a6.29,6.29,0,0,0-5.81,3.91,11.27,11.27,0,0,0-3.34-6.39C101,20.92,61.42,19.77,37.65,20.19a5.31,5.31,0,0,0-10.44.3l-2.89.13a5.32,5.32,0,0,0-10.61-.89L11.17,48.48A5.33,5.33,0,0,0,16,54.25l.48,0a5.31,5.31,0,0,0,5.29-4.85l.14-1.54,2.8.56-.1,1.17a5.33,5.33,0,0,0,4.84,5.78l.47,0a5.35,5.35,0,0,0,5.3-4.86l0-.19c8.5,1.44,19,3,29.67,3.91L63.59,72A15.6,15.6,0,0,0,79.06,88.73a15.78,15.78,0,0,0,3.47-.39l26.33-5.92A15.57,15.57,0,0,0,119,59.52L112.5,48.14a10.82,10.82,0,0,0,3-5.15,6.27,6.27,0,1,0,6-8.05ZM17.79,49.06a1.28,1.28,0,0,1-.46.9,1.32,1.32,0,0,1-2.17-1.13l.3-3.36a1.94,1.94,0,0,1-.09-.76l2-22a1.85,1.85,0,0,1,.15-.57l.18-2.07A1.32,1.32,0,0,1,19,18.87h.12a1.31,1.31,0,0,1,1.2,1.43l0,.53L18,47.07Zm4.48-5.2L24,24.66l2.87-.13L25.08,44.41C24.05,44.22,23.11,44,22.27,43.86Zm9,6.34a1.32,1.32,0,0,1-1.43,1.2A1.31,1.31,0,0,1,28.61,50l.07-.78.35-4,1.83-20.77.28-3.18a1.41,1.41,0,0,1,.44-.87,1.37,1.37,0,0,1,.88-.33h.12a1.37,1.37,0,0,1,.69.28,1.33,1.33,0,0,1,.51,1.16l-.25,2.86L31.64,45.64l-.35,4ZM115.5,61.5a11.58,11.58,0,0,1-7.52,17L81.66,84.44A11.56,11.56,0,0,1,67.58,72.28l1.33-17.69.23-3a9.24,9.24,0,0,1,.11-.92,11.48,11.48,0,0,1,8.89-9.5l14.48-3.26a12.06,12.06,0,0,1,2.58-.28,11.49,11.49,0,0,1,10,5.85l2.07,3.64,2,3.47Zm-6.8-20a15.49,15.49,0,0,0-17-7.49L77.26,37.23a15.46,15.46,0,0,0-12,13.06c-10.58-.95-21.17-2.52-29.66-4l1.95-22.11c23.17-.41,61.62.58,71.94,11.05A7,7,0,0,1,111.76,41a6.6,6.6,0,0,1-1.34,3.52Zm12.79,2a2.28,2.28,0,1,1,2.27-2.27A2.27,2.27,0,0,1,121.49,43.49Z"/><path class="cls-1" d="M88.44,42.67A6.27,6.27,0,0,0,87,55.05a6.11,6.11,0,0,0,3.44-.17,6.29,6.29,0,0,0,4-4.27,6.12,6.12,0,0,0,.23-1.67A6.28,6.28,0,0,0,88.44,42.67ZM89.33,51a2.18,2.18,0,0,1-.89.18,2.33,2.33,0,0,1-.7-.11A2.28,2.28,0,1,1,89.33,51Z"/></svg>